<svg height="512" viewBox="0 0 58 47" width="512" xmlns="http://www.w3.org/2000/svg"><g id="Page-1" fill="none" fill-rule="evenodd"><g id="075---Handshake" fill-rule="nonzero" transform="translate(0 -1)"><path id="Shape" d="m49.4501142.74502589h5v19.00000001h-5c-1.1045695 0-2-.8954305-2-2v-15.00000001c0-1.1045695.8954305-2 2-2z" fill="#ff5364" transform="matrix(-.866 .5 -.5 -.866 100.197 -6.358)"/><path id="Shape" d="m43.17 3.77c-9.427 5.454-9.109 5.32-9.21 5.32-2.436-1.411-.872-.506-6.67-3.86-1.638525-.94435892-3.6385018-1.01551914-5.34-.19-1.7087461.81218507-3.7066626.7374966-5.35-.2l-1.77-1.03-9.49 16.46c4.526 2.605 3.288 1.89 5.63 3.25l-.64.37c-1.13727876.6929123-1.53174235 2.1557086-.89702769 3.3264638.63471469 1.1707551 2.07577169 1.6384401 3.27702769 1.0635362l-1.61.93c-.779877.443404-1.26238305 1.270683-1.26435526 2.1677958-.00197221.8971127.47689186 1.7265052 1.25481176 2.1733339.7779198.4468286 1.7356175.4425812 2.5095435-.0111297l.83-.48c-.0383619.0242543-.075106.0509773-.11.08l-.02.01c-.9013321.6197562-1.2950971 1.7535075-.9719636 2.7985348.3231334 1.0450273 1.2881221 1.7586377 2.3819636 1.7614652.7737976-.0658441 1.511101-.3579832 2.12-.84-.9835257.5626536-1.4656514 1.7164346-1.1748632 2.8115804.2907882 1.0951457 1.2817694 1.8577806 2.4148632 1.8584196.939 0 .107.326 15.28-8.44.1 0-.155.111 13.37-8.98 1.3690131-1.6216483 3.0530306-2.94845 4.95-3.9z" fill="#fdd7ad"/><circle id="Oval" cx="46" cy="36" fill="#26b99a" r="12"/><path id="Shape" d="m43 43c-.2651948-.0000566-.5195073-.1054506-.707-.293l-4-4c-.3789722-.3923789-.3735524-1.0160848.0121814-1.4018186s1.0094397-.3911536 1.4018186-.0121814l3.293 3.293 9.293-9.293c.3923789-.3789722 1.0160848-.3735524 1.4018186.0121814s.3911536 1.0094397.0121814 1.4018186l-10 10c-.1874927.1875494-.4418052.2929434-.707.293z" fill="#65ddb9"/><g fill="#f9c795"><path id="Shape" d="m48.06 15.61c-.1318351-.5264328-.4708392-.9772361-.94-1.25l-11.14-6.43-2 1.16 12.14 7-.06.11c-1.133447 1.8425827-3.5290069 2.4459089-5.4 1.36l-10.47-6.05-.22-.12-1.41-.82c-.1851981-.1043949-.3990588-.1464658-.61-.12-.0505343.0017383-.1007756.0084371-.15.02-.2579212.0689564-.4775594.2381858-.61.47l-.22.39c-.85 1.49-2 3.54-4.13 4.12-.8828533.2193026-1.8055406.2227327-2.69.01-1.3689109-.3226288-2.6783443-.8592265-3.88-1.59-.3099891-.1970594-.703062-.2083077-1.0238128-.0292979-.3207509.1790099-.5175425.5194594-.5125711.886748s.2109055.702287.5363839.8725499c.854108.4978156 1.7470078.9258724 2.67 1.28l.218.058-8.269 5.041-.64.37c-.05.03-.1.06-.14.09l1.86 1.08 9.763-5.952h.028c.8709006.1008692 1.7530158.036407 2.6-.19 2.67-.73 4.11-2.91 5.07-4.57l11.23 6.48c2.8061314 1.6314096 6.401351.7259469 8.1-2.04l.06-.1c.2900893-.4567297.3770398-1.0135748.24-1.537z"/><path id="Shape" d="m31.84 31.1-15.13 8.74c-.3622344-1.0711563.0396134-2.2520966.98-2.88l13.15-7.59c.4748504-.2484017 1.0611063-.0783237 1.3292932.3856398.268187.4639634.1229594 1.0568642-.3292932 1.3443602z"/><path id="Shape" d="m29.34 26.77-15.99 9.23c-.3580537-1.0555474.0302286-2.2203944.95-2.85l.02-.01 14.02-8.1c.227715-.1341865.4996674-.1716407.7551779-.1040055.2555106.0676351.4733172.2347314.6048221.4640055.2757495.4781528.1151892 1.0891741-.36 1.37z"/><path id="Shape" d="m26.84 22.45-13.42 7.75-.12.06-3.38 1.69c-.2578874-1.0739569.2225092-2.1894541 1.18-2.74l1.09-.63.16-.08 13.49-7.78c.2275837-.1347392.4997221-.1725035.755395-.1048254s.4734877.235136.604605.4648254c.2757495.4781528.1151892 1.0891741-.36 1.37z"/></g><path id="Shape" d="m6.734 3.847 1.036-1.797c.26387856-.46016326.69975499-.79664825 1.21173421-.9354265s1.05811899-.06848082 1.51826579.1954265l4.33 2.5-9.5 16.46-4.33-2.5c-.95461131-.5529293-1.28123402-1.7744087-.73-2.73l4.1-7.09z" fill="#26b99a"/></g></g></svg>